<svg xmlns="http://www.w3.org/2000/svg" viewBox="0 0 512 512">
  <defs>
    <linearGradient id="bg" x1="0" y1="0" x2="0" y2="1">
      <stop offset="0" stop-color="#E0F2FE"/>
      <stop offset="1" stop-color="#BAE6FD"/>
    </linearGradient>
  </defs>
  <!-- 圆形背景 -->
  <circle cx="256" cy="256" r="248" fill="url(#bg)"/>
  <!-- 背鳍 -->
  <path d="M 230 125 C 235 82, 278 58, 308 64 C 295 88, 288 112, 286 132 C 267 124, 248 122, 230 125 Z" fill="#0284C7"/>
  <!-- 海豚头部主体 -->
  <path d="M 120 280 C 115 190, 175 120, 270 118 C 345 116, 400 155, 418 205 C 435 212, 452 225, 458 240 C 461 248, 456 255, 447 252 C 436 249, 422 246, 413 250 C 398 300, 345 345, 272 350 C 190 356, 126 340, 120 280 Z" fill="#38BDF8"/>
  <!-- 肚皮（浅色） -->
  <path d="M 162 318 C 218 350, 318 350, 378 310 C 362 342, 308 360, 252 356 C 208 353, 178 338, 162 318 Z" fill="#E0F2FE"/>
  <!-- 眼睛 -->
  <circle cx="322" cy="212" r="34" fill="#FFFFFF"/>
  <circle cx="332" cy="217" r="17" fill="#0F172A"/>
  <circle cx="338" cy="209" r="6" fill="#FFFFFF"/>
  <!-- 腮红 -->
  <ellipse cx="352" cy="262" rx="20" ry="13" fill="#FDA4AF" opacity="0.8"/>
  <!-- 微笑嘴 -->
  <path d="M 416 255 C 405 266, 390 269, 376 265" stroke="#0369A1" stroke-width="7" fill="none" stroke-linecap="round"/>
</svg>
